<svg width="59" height="60" viewBox="0 0 59 60" fill="none" xmlns="http://www.w3.org/2000/svg">
<mask id="path-1-inside-1_1_104" fill="white">
<path fill-rule="evenodd" clip-rule="evenodd" d="M31.0723 0.417186C31.0269 1.08457 31.0035 1.75744 31.003 2.43506C30.9912 18.2029 43.3452 30.7904 58.9565 31.7264C58.7055 31.72 58.4536 31.7168 58.2011 31.7168C42.3966 31.7168 29.452 44.2408 28.4026 59.7222L28.3863 59.7215C28.3915 59.4977 28.3942 59.2734 28.3944 59.0483C28.4063 43.2384 15.9866 30.0054 0.316328 29.0853C0.60899 29.0935 0.902711 29.0976 1.19743 29.0976C17.4563 29.0976 30.688 16.4922 31.0563 0.416504C31.0616 0.41673 31.067 0.416957 31.0723 0.417186Z"/>
</mask>
<path d="M31.0723 0.417186L32.07 0.484373L32.1396 -0.538134L31.1158 -0.581902L31.0723 0.417186ZM31.003 2.43506H30.003L30.003 2.43506L31.003 2.43506ZM58.9565 31.7264L58.9304 32.726L59.0171 30.7282L58.9565 31.7264ZM28.4026 59.7222L28.3584 60.7212L29.3342 60.7636L29.4003 59.789L28.4026 59.7222ZM28.3863 59.7215L27.3866 59.6991L27.364 60.678L28.3422 60.7205L28.3863 59.7215ZM28.3944 59.0483H29.3944H28.3944ZM0.316328 29.0853L0.34519 28.0857L0.256965 30.0836L0.316328 29.0853ZM31.0563 0.416504L31.0992 -0.582606L30.0799 -0.625642L30.0565 0.394352L31.0563 0.416504ZM30.0746 0.349998C30.0277 1.03969 30.0035 1.73497 30.003 2.43506H32.003C32.0035 1.77992 32.0261 1.12944 32.07 0.484373L30.0746 0.349998ZM30.003 2.43506C29.9908 18.7524 42.7772 31.7582 58.8959 32.7246L59.0171 30.7282C43.9132 29.8226 31.9916 17.6535 32.003 2.43506L30.003 2.43506ZM58.2003 32.7168C58.4445 32.7168 58.6878 32.7199 58.9304 32.726L58.9826 30.7267C58.7231 30.7201 58.4628 30.7168 58.2019 30.7168L58.2003 32.7168ZM29.4003 59.789C30.4151 44.8195 42.9354 32.7168 58.2003 32.7168L58.2019 30.7168C41.8579 30.7168 28.489 43.662 27.4049 59.6553L29.4003 59.789ZM28.3422 60.7205L28.3584 60.7212L28.4467 58.7231L28.4305 58.7224L28.3422 60.7205ZM27.3944 59.0483C27.3942 59.2659 27.3916 59.4828 27.3866 59.6991L29.3861 59.7438C29.3914 59.5127 29.3942 59.2808 29.3944 59.0483H27.3944ZM0.256965 30.0836C15.3941 30.9723 27.4059 43.7633 27.3944 59.0483H29.3944C29.4066 42.7135 16.5792 29.0384 0.375691 28.087L0.256965 30.0836ZM1.19819 28.0976C0.91283 28.0976 0.62848 28.0936 0.34519 28.0857L0.287466 30.0849C0.5895 30.0934 0.892592 30.0976 1.19668 30.0976L1.19819 28.0976ZM30.0565 0.394352C29.7011 15.9081 16.932 28.0976 1.19819 28.0976L1.19668 30.0976C17.9805 30.0976 31.6748 17.0763 32.056 0.438656L30.0565 0.394352ZM31.1158 -0.581902C31.1102 -0.582138 31.1047 -0.582373 31.0992 -0.582606L31.0133 1.41561C31.0185 1.41583 31.0237 1.41605 31.0288 1.41627L31.1158 -0.581902Z" fill="white" mask="url(#path-1-inside-1_1_104)"/>
</svg>
